<svg version="1.1" xmlns="http://www.w3.org/2000/svg" x="0px" y="0px" viewBox="0 0 318 318.75"><g><path d="M148.5,0c7.25,0,14.5,0,21.75,0c2.97,0.5,5.93,1.14,8.92,1.47c22.57,2.5,43.41,10.12,62.67,21.91 c22.25,13.61,40.07,31.72,53.67,54.05c10.34,16.97,16.98,35.23,20.24,54.77c0.7,4.19,1.49,8.36,2.24,12.54c0,9.5,0,19,0,28.5 c-0.74,4.31-1.53,8.61-2.23,12.92c-4.95,30.63-18.29,57.26-38.97,80.17c-13.53,14.99-29.44,27.1-47.7,35.87 c-19.66,9.45-40.29,15.23-62.23,15.81c-0.88,0.02-1.75,0.47-2.63,0.72c-3.75,0-7.5,0-11.25,0c-4.22-0.5-8.44-1.04-12.67-1.49 c-18.32-1.95-35.72-7.17-52.15-15.37c-21.1-10.53-39.01-25.11-53.73-43.61c-16.04-20.15-26.79-42.72-31.46-68.11 C2,184.78,1,179.39,0,174c0-9.75,0-19.5,0-29.25c0.49-2.34,1.15-4.65,1.46-7.01C4,117.86,10.03,99.15,19.99,81.73 C38.31,49.68,64.34,26.3,98.44,12.08c13.19-5.5,26.83-9.45,41.17-10.63C142.59,1.21,145.54,0.5,148.5,0z M159.21,31.27 c-70.97-0.3-129.43,57-128.31,130.36c1.05,68.73,57.44,128.46,133.91,125.53c65.6-2.51,123.84-56.45,122.21-131.08 C285.51,86.74,229.82,31.47,159.21,31.27z"/><path d="M132.81,189.32c0.96-0.88,1.8-1.58,2.58-2.35c28.74-28.49,57.47-56.98,86.19-85.48c2.85-2.83,6.58-5.99,10.06-3.07 c6.89,5.77,13.25,12.29,19.08,19.14c2.02,2.38,0.2,6.09-2.35,8.61c-29.74,29.43-59.44,58.89-89.15,88.36 c-6.56,6.51-13.1,13.05-19.68,19.55c-5.12,5.06-9.6,4.77-14.18-0.83c-0.79-0.96-1.63-1.88-2.51-2.76 c-17.73-17.78-35.47-35.56-53.2-53.34c-3.82-3.83-3.95-8.24-0.2-12.08c4.45-4.56,8.94-9.08,13.52-13.51 c4.01-3.87,8.16-3.79,12.06,0.1c11.58,11.57,23.13,23.16,34.7,34.74C130.69,187.36,131.69,188.26,132.81,189.32z"/></g></svg>