<svg version="1.1" xmlns="http://www.w3.org/2000/svg" xmlns:xlink="http://www.w3.org/1999/xlink" x="0px" y="0px" viewBox="0 0 318 318.75"><g><path d="M0,174c0-9.75,0-19.5,0-29.25c0.26-0.49,0.66-0.96,0.75-1.48c1.06-6.46,1.74-13.01,3.14-19.39 c6.28-28.49,19.74-53.19,39.92-74.23c11.21-11.69,23.66-21.82,37.96-29.56c17.78-9.63,36.51-16.34,56.72-18.56 c3.1-0.34,6.17-1.01,9.26-1.53c7.5,0,15,0,22.5,0c0.62,0.26,1.23,0.72,1.86,0.76c13.05,0.76,25.72,3.49,38.04,7.72 c21.47,7.38,40.6,18.75,57.16,34.34c10.53,9.92,19.67,20.93,27.35,33.25c10.83,17.35,17.7,36.08,21.06,56.19 c0.66,3.93,1.51,7.83,2.27,11.74c0,10,0,20,0,30c-0.26,0.49-0.65,0.96-0.76,1.48c-2.27,10.88-3.66,22.02-6.9,32.6 c-9.43,30.76-27.43,55.89-52.58,75.86c-26.5,21.04-56.65,32.54-90.53,34.07c-0.76,0.03-1.49,0.49-2.24,0.75c-4.25,0-8.5,0-12.75,0 c-0.74-0.26-1.47-0.67-2.24-0.76c-6.64-0.8-13.35-1.2-19.93-2.36c-30.98-5.46-57.73-19.41-80.57-40.93 c-15.73-14.82-27.87-32.22-36.62-51.97c-5.08-11.48-8.37-23.5-10.56-35.85C1.56,182.59,0.78,178.3,0,174z M159.33,31.04 C87.18,31.39,29.96,88.85,30.89,161.28c0.91,70.52,59.07,128.6,133.22,125.97c65.99-2.34,124.34-56.47,122.95-130.58 C285.74,86.31,229.46,31.76,159.33,31.04z"/><path d="M138.17,169.5c-2.55,0-4.9,0.04-7.25-0.01c-4.72-0.09-7.75-2.91-7.88-7.62c-0.14-5.12-0.12-10.24-0.01-15.36 c0.1-4.57,3.26-7.72,7.8-7.74c13.61-0.06,27.23-0.06,40.84,0c4.99,0.02,7.93,3.31,7.94,8.81c0.03,19.23,0,38.47,0,57.7 c0,1.49,0,2.98,0,4.85c2.99,0.21,5.81,0.29,8.6,0.64c4.23,0.52,6.7,3.25,6.78,7.5c0.09,5.12,0.1,10.24,0,15.36 c-0.09,4.47-3.29,7.78-7.84,7.8c-18.73,0.09-37.47,0.09-56.2,0c-4.64-0.02-7.85-3.51-7.92-8.18c-0.07-4.74-0.04-9.49-0.01-14.24 c0.04-5.16,2.29-7.74,7.51-8.38c2.45-0.3,4.95-0.29,7.64-0.43C138.17,196.65,138.17,183.23,138.17,169.5z"/><path d="M159.15,124.72c-14.57,0.12-27.02-12.13-27.14-26.71c-0.13-14.84,12.19-27.43,26.86-27.45 c14.57-0.02,27.01,12.28,27.13,26.82C186.12,112.25,174.01,124.59,159.15,124.72z"/></g></svg>
