<svg version="1.1" xmlns="http://www.w3.org/2000/svg" x="0px" y="0px" viewBox="0 0 318 318.75"><g><path d="M148.15,0c6.98,0,13.97,0,20.95,0c0.63,0.25,1.23,0.63,1.88,0.72c7.3,1.04,14.71,1.58,21.91,3.11 c27.35,5.8,51.3,18.49,71.99,37.14c16.22,14.62,28.96,31.91,38.23,51.82c8,17.18,12.36,35.28,13.91,53.96 c1.09,13.08,0.42,26.25-1.95,39.28c-3.84,21.03-11.14,40.62-22.81,58.61c-8.28,12.76-18.15,24.01-29.54,34.1 c-11,9.74-23.12,17.78-36.34,23.87c-23.93,11.03-49.12,16.74-75.63,14.55c-10.03-0.83-20.16-1.84-29.94-4.11 c-27.2-6.31-50.78-19.67-71.17-38.69c-10.83-10.11-19.91-21.64-27.55-34.32C11.94,223.22,5.31,205.1,2.23,185.69 c-0.68-4.29-1.48-8.57-2.23-12.85c0-9.23,0-18.46,0-27.68c0.25-0.63,0.64-1.23,0.72-1.88c0.59-4.64,0.76-9.38,1.74-13.93 c3.37-15.63,8.23-30.7,15.85-44.92c10.14-18.93,23.62-35,40.01-48.65c12.85-10.69,27.22-18.98,42.86-24.94 c12.3-4.68,24.86-8.43,38.1-9.4C142.26,1.23,145.2,0.5,148.15,0z M158.24,286.58c71.34,0.15,127.95-56.78,128.12-126.77 c0.17-72.24-55.65-128.38-127.33-128.67C87,30.85,31.2,87.47,30.89,158.58C30.58,229.74,87.49,286.24,158.24,286.58z"/><path d="M158.68,77.07c5.74,0,11.47-0.01,17.21,0c4.74,0.01,8.34,3.34,8.12,8.1c-0.57,12.37-1.44,24.72-2.15,37.08 c-0.3,5.2-0.54,10.4-0.78,15.6c-0.52,11.4-0.99,22.8-1.52,34.2c-0.19,4.14-3.53,7.44-7.75,7.48c-8.6,0.1-17.21,0.12-25.81,0 c-5.12-0.07-8.12-3.41-8.34-8.44c-0.69-15.85-1.46-31.71-2.24-47.56c-0.46-9.41-0.97-18.81-1.49-28.21 c-0.18-3.21-0.64-6.41-0.7-9.62c-0.09-5.55,3.09-8.63,8.62-8.64C147.46,77.06,153.07,77.07,158.68,77.07z"/><path d="M158.58,247.14c-16.18,0.03-28.69-13.92-26.79-29.64c1.79-14.79,12.71-24.32,26.74-24.18 c16.63,0.17,28.59,13.42,26.91,29.97C184.08,236.81,172.88,247.28,158.58,247.14z"/></g></svg>