<svg version="1.0" xmlns="http://www.w3.org/2000/svg" width="274.000000pt" height="275.000000pt" viewBox="0 0 274.000000 275.000000" preserveAspectRatio="xMidYMid meet"><g transform="translate(0.000000,275.000000) scale(0.100000,-0.100000)" stroke="none"><path d="M300 2729 c-31 -12 -256 -233 -276 -271 -18 -35 -18 -91 0 -126 8 -15 224 -236 480 -492 l466 -465 -477 -477 -476 -476 -5 -55 -4 -54 70 -79 c97 -111 191 -198 229 -213 78 -32 66 -41 586 477 l477 477 478 -477 c519 -518 507 -509 585 -477 38 15 132 102 228 212 61 68 69 82 69 118 0 22 -5 50 -11 62 -6 12 -222 234 -480 492 l-469 470 466 465 c256 256 472 477 480 492 18 34 18 91 0 126 -8 15 -70 82 -138 149 -129 128 -159 145 -225 128 -19 -4 -186 -164 -506 -483 l-477 -477 -473 472 c-259 259 -482 476 -494 482 -26 13 -69 13 -103 0z"/></g></svg>
