<svg version="1.1" xmlns="http://www.w3.org/2000/svg" x="0px" y="0px" viewBox="0 0 205.5 206.25"><g><path d="M24.75,0c1.25,0,2.5,0,3.75,0c2.76,2.15,5.77,4.04,8.23,6.49C57.81,27.42,78.8,48.45,99.76,69.51 c0.94,0.94,1.34,2.41,2.3,4.23c2.12-2.47,2.95-3.56,3.91-4.53c21-21.02,41.98-42.06,63.06-63c2.37-2.36,5.3-4.16,7.96-6.22 c1.25,0,2.5,0,3.75,0c3.19,2.33,6.75,4.28,9.49,7.06c5.33,5.41,10.2,11.27,15.26,16.94c0,1.75,0,3.5,0,5.25 c-2.15,2.76-4.03,5.77-6.48,8.23c-20.84,20.99-41.79,41.87-62.7,62.79c-0.93,0.93-1.83,1.91-2.8,2.92 c21.94,21.94,43.77,43.71,65.49,65.58c2.44,2.46,4.33,5.47,6.48,8.23c0,1.5,0,3,0,4.5c-6.93,10.18-14.3,19.89-26.25,24.75 c-0.25,0-0.5,0-0.75,0c-5.07-1.09-8.21-4.86-11.63-8.28c-20.39-20.41-40.81-40.79-61.16-61.25c-0.93-0.94-1.3-2.44-1.93-3.69 c-2.56,1.9-3.32,3.06-4.29,4.03c-21.88,21.92-43.79,43.82-65.69,65.72c-2.86,2.86-9.38,4.07-12.28,1.77 C13.21,197.96,5.55,190.69,0,181.5c0-1.5,0-3,0-4.5c2.15-2.76,4.04-5.77,6.48-8.23c20.84-20.98,41.79-41.87,62.7-62.79 c0.93-0.93,1.83-1.91,2.8-2.93C50.04,81.12,28.21,59.35,6.48,37.49C4.04,35.02,2.15,32.01,0,29.25c0-1.75,0-3.5,0-5.25 c0.71-1.07,1.29-2.26,2.16-3.19c4.39-4.73,8.68-9.58,13.36-14.02C18.26,4.17,21.65,2.24,24.75,0z"/></g></svg>
