<?xml version="1.0" encoding="utf-8"?>
<!-- Generator: Adobe Illustrator 24.0.1, SVG Export Plug-In . SVG Version: 6.00 Build 0)  -->
<svg version="1.1" id="Слой_1" xmlns="http://www.w3.org/2000/svg" xmlns:xlink="http://www.w3.org/1999/xlink" x="0px" y="0px"
	 viewBox="0 0 288 287.29" style="enable-background:new 0 0 288 287.29;" xml:space="preserve">
<g>
	<path d="M0,258.9c0-75.26,0-150.51,0-225.77c0.14-0.48,0.41-0.96,0.4-1.43C0.16,21.04,4.34,12.58,12.79,6.08
		c4.76-3.66,10.18-5.95,16.01-5.97c76.17-0.15,152.34-0.13,228.51-0.06c3.17,0,6.56,0.38,9.48,1.52
		c12.76,5.01,20.2,14.14,20.73,28.25c0.04,1.1,0.31,2.2,0.47,3.3c0,72.01,0,144.01,0,216.02c-0.18,2.07-0.58,4.15-0.5,6.21
		c0.28,7.32-1.5,13.81-6.2,19.67c-6.17,7.69-13.92,12.16-23.74,12.18c-75.8,0.11-151.6,0.1-227.4,0.06
		c-9.05,0-16.46-4.04-22.23-10.75C3.61,271.51,0.91,265.55,0,258.9z M144.25,30.8c-35.24,0-70.48,0.04-105.72-0.04
		c-5.58-0.01-7.47-0.71-7.47,7.28c0.02,61.74-0.03,123.48-0.04,185.21c0,9.12-0.1,18.25,0.24,27.36c0.22,5.84,0.54,5.88,6.41,5.88
		c36.62,0.03,73.23,0.04,109.85,0.04c34.49,0,68.98-0.01,103.47-0.02c4.72,0,6.18-1.38,6.14-5.45c-0.09-10.12-0.18-20.24-0.18-30.35
		c0-60.86,0.02-121.73,0.03-182.59c0-7.09-0.24-7.32-7.38-7.32C214.48,30.8,179.37,30.8,144.25,30.8z"/>
	<path d="M92.38,82.12c0-4.08-0.06-7.43,0.01-10.79c0.11-4.89,2.39-8.02,6.57-9.19c5.51-1.54,11.27-0.23,13.17,3.85
		c1.18,2.54,1.07,5.78,1.12,8.72c0.14,7.41,0.05,7.36,7.37,7.37c3.36,0.01,6.74,0.06,10.08,0.4c7.25,0.74,13.11,7.24,13.21,14.47
		c0.05,3.37,0.04,6.75,0.02,10.12c-0.05,9.06-6.79,15.91-15.95,16.1c-4.72,0.1-9.44,0.02-14.69,0.02c0,1.64,0,3.08,0,4.52
		c0,29.1-0.04,58.21,0.05,87.31c0.01,3.87-0.68,7.57-4.08,9.37c-4.08,2.16-8.79,1.88-12.91-0.2c-1.5-0.76-2.79-2.96-3.15-4.71
		c-0.68-3.26-0.81-6.67-0.82-10.02c-0.06-25.36-0.05-50.71-0.01-76.07c0-2.23,0.27-4.47,0.49-6.69c0.25-2.46-0.48-3.71-3.27-3.56
		c-3.74,0.2-7.51-0.2-11.23,0.1c-7.67,0.62-16.8-6.71-16.27-15.94c0.2-3.49,0.25-7.01,0.01-10.49c-0.55-7.91,8.2-14.75,14.64-14.72
		C81.81,82.14,86.87,82.12,92.38,82.12z"/>
	<path d="M174.72,164.38c0-1.64,0-3.1,0-4.55c0-29.11,0.01-58.22-0.02-87.33c0-4.23,0.85-8.08,5.02-9.98
		c4.99-2.27,10.21-1.37,13.44,2.64c1.4,1.74,2.17,4.48,2.18,6.78c0.15,29.6,0.16,59.21,0.04,88.81c-0.01,2.86,0.66,3.82,3.47,3.7
		c3.86-0.17,7.75,0.07,11.61-0.07c8.3-0.31,14.89,6.22,15.39,14.4c0.26,4.22,0.16,8.5-0.17,12.72c-0.57,7.35-6.53,13.03-13.91,13.36
		c-4.36,0.2-8.74,0.14-13.11,0.1c-2.41-0.02-3.58,0.55-3.29,3.43c0.32,3.2,0.18,6.5-0.25,9.7c-0.68,4.99-2.69,6.72-7.77,7.25
		c-3.52,0.37-7.31,1.18-9.87-2.22c-1.25-1.66-2.36-3.72-2.66-5.73c-0.45-2.93-0.26-5.99-0.08-8.98c0.16-2.7-1.07-3.53-3.53-3.48
		c-3.75,0.08-7.5-0.01-11.24,0.05c-9.15,0.16-16.21-7.12-15.94-16.15c0.08-2.87,0.17-5.76-0.01-8.62
		c-0.53-8.06,7.07-16.44,15.68-15.88C164.53,164.64,169.39,164.38,174.72,164.38z"/>
</g>
</svg>
