<svg version="1.1" xmlns="http://www.w3.org/2000/svg" x="0px" y="0px" viewBox="0 0 327.68 328.61"><g><path d="M0,165.73c0-7.75,0-15.5,0-23.25c0.16-0.18,0.46-0.35,0.47-0.54c0.86-11.11,11.98-19.17,22.87-18.29 c5.8,0.47,11.66,0.08,17.92,0.08c0-1.97,0-3.43,0-4.89c0-32.12,0.19-64.24-0.1-96.36C41.06,11.17,50.4,0.45,62.9,0.54 c58,0.4,116,0.24,174,0.11c6.93-0.02,12.26,2.68,16.93,7.33c8.01,7.98,15.86,16.13,24.03,23.94c6.49,6.2,9.83,13.16,9.63,22.46 c-0.48,21.61-0.15,43.24-0.15,64.86c0,1.43,0,2.86,0,4.52c7.53,0,14.41-0.27,21.26,0.06c9.86,0.48,18.57,7.55,19.19,17.37 c0.56,8.92,0.58,17.95-0.11,26.86c-0.69,8.97-8.5,14.92-15.8,16.27c-3.33,0.61-4.25,1.55-4.24,4.89 c0.09,33.37,0.23,66.74-0.15,100.1c-0.17,14.93-7.59,26.27-20.51,33.59c-4.5,2.55-9.74,3.77-14.65,5.6c-72.27,0-144.55,0-216.82,0 c-4.7-1.82-9.72-3.08-14.04-5.56c-13.36-7.66-20.38-19.51-20.48-34.9c-0.22-33.19-0.13-66.38-0.04-99.57 c0.01-2.84-0.6-3.86-3.62-4.07c-5.05-0.35-9.33-3.09-12.1-7.09C2.87,173.88,1.7,169.62,0,165.73z M71.98,31.16 c0,11.02,0.02,21.5,0,31.99c-0.05,18.49-0.05,36.98-0.24,55.46c-0.05,4.6,0.19,5.19,4.81,5.14c4.5-0.05,9,0.04,13.48-0.26 c10.02-0.66,17.35,4.03,23.57,11.27c5.35,6.23,11.75,9.57,20.45,9.39c21.24-0.43,42.49-0.16,63.73-0.12 c4.57,0.01,8.52-1.56,11.89-4.52c2.71-2.38,5.34-4.88,7.82-7.49c5.43-5.72,11.88-8.7,19.9-8.33c5.11,0.24,10.25-0.07,15.37,0.1 c2.96,0.09,4.17-0.71,4.13-3.98c-0.19-16.49-0.14-32.98-0.17-49.47c-0.01-2.83,0-5.65,0-8.83c-6.37,0-12.34,0-18.31,0 c-8.51,0-12.55-4.01-12.55-12.45c0-5.94,0-11.87,0-17.9C174.32,31.16,123.39,31.16,71.98,31.16z M51.35,184.97 c-0.09,1.28-0.16,1.89-0.16,2.5c0.01,19.62,0.04,39.24,0.04,58.85c0,13,0.08,25.99-0.09,38.99c-0.1,7.65,3.6,12.85,12.36,12.68 c12.37-0.23,24.74-0.1,37.11-0.09c22.24,0.02,44.48,0.08,66.73,0.08c18.74,0,37.48-0.08,56.23-0.09 c14.62-0.01,29.23,0.07,43.85-0.01c1.52-0.01,3.11-0.6,4.53-1.24c5.11-2.3,5.52-7.03,5.52-11.69c0.03-30.86-0.05-61.72-0.08-92.58 c-0.01-7.29,0-7.25-7.23-7.26c-29.49-0.03-58.98-0.11-88.47-0.13c-40.36-0.03-80.71-0.01-121.07-0.01 C57.64,184.97,54.66,184.97,51.35,184.97z"/><path d="M163.92,246.79c21.99,0,43.98-0.02,65.97,0.02c2.74,0,5.48,0.28,8.22,0.48c4.21,0.31,6.71,3.06,7.26,6.77 c0.72,4.89,0.77,9.94,0.57,14.89c-0.14,3.47-4.14,7.1-7.73,7.65c-2.82,0.43-5.69,0.78-8.53,0.79c-44.61,0.04-89.21,0.01-133.82,0 c-9.34,0-13.37-4.01-13.38-13.32c0-2.12-0.03-4.25,0.01-6.37c0.14-7.07,3.91-10.84,10.96-10.85c23.49-0.02,46.98-0.01,70.47-0.01 C163.92,246.82,163.92,246.81,163.92,246.79z"/><path d="M141.21,203.25c2.5,0,5-0.03,7.5,0.01c3.19,0.04,4.92,1.84,5.02,4.87c0.17,5.12,0.07,10.24,0.04,15.36 c-0.02,3.33-2.39,4.68-5.09,4.87c-4.73,0.33-9.49,0.31-14.23,0.13c-3.89-0.15-6.03-2.56-6.13-6.56c-0.1-4.12-0.09-8.25,0.01-12.36 c0.11-4.37,2.08-6.21,6.51-6.28c2.12-0.03,4.25-0.01,6.37-0.01C141.21,203.27,141.21,203.26,141.21,203.25z"/><path d="M187.64,203.26c2.12,0,4.23-0.01,6.35,0c3.99,0.03,6.05,1.78,6.21,5.7c0.19,4.48,0.19,8.97,0.06,13.44 c-0.12,3.98-2.03,5.9-6.05,6.03c-4.48,0.15-8.97,0.08-13.45-0.03c-4.12-0.1-5.71-1.44-5.91-5.55c-0.24-4.97-0.2-9.96,0.03-14.94 c0.13-2.83,2.05-4.46,4.9-4.6c2.61-0.13,5.23-0.03,7.84-0.03C187.64,203.28,187.64,203.27,187.64,203.26z"/><path d="M233.73,203.36c2.62,0,5.25-0.06,7.87,0.02c2.8,0.09,4.41,1.49,4.46,4.42c0.09,4.74,0.35,9.48,0.24,14.21 c-0.12,5.12-1.47,6.49-6.57,6.41c-5.31-0.09-10.62-0.47-15.89-1.08c-0.99-0.11-2.52-1.85-2.57-2.9c-0.27-5.72-0.33-11.46-0.1-17.18 c0.11-2.88,2.59-3.74,5.07-3.9c2.49-0.17,4.99-0.04,7.49-0.04C233.73,203.33,233.73,203.35,233.73,203.36z"/><path d="M82.53,215.72c0-2.37,0.01-4.75,0-7.12c-0.01-3.39,1.92-5.11,5.06-5.23c4.99-0.18,10-0.11,15-0.04 c3.47,0.05,4.91,2.44,5.03,5.4c0.19,4.86,0.01,9.74-0.13,14.61c-0.07,2.56-1.26,4.2-4.12,4.27c-5.46,0.14-10.93,0.57-16.39,0.53 c-2.88-0.02-4.46-1.92-4.46-4.92c0-2.5,0-5,0-7.5C82.51,215.72,82.52,215.72,82.53,215.72z"/></g></svg>