<svg xmlns="http://www.w3.org/2000/svg" x="0px" y="0px" viewBox="0 0 410.1 328.8"><g><path d="M81.7,297.5c0-11.8,0-23.2,0-34.5c0-68.6,0-137.3,0-205.9c0-8.6,1.8-16.7,9.5-21.4c4.7-2.9,10.4-4.4,15.9-5.9 c37.4-9.8,74.9-19.2,112.2-29.1c14.4-3.8,26.8,7.5,26.9,20.4c0,6.5,0,12.9,0,19.8c3.7,0,7,0,10.4,0c13.6,0,27.2-0.1,40.8,0 c16.5,0.1,30,13,30.4,29.6c0.5,24.2,0.5,48.5,0.5,72.7c0.1,50.3,0,100.5,0,150.8c0,1,0,2,0,3.5c1.5,0,2.9,0,4.2,0 c21.8,0,43.7,0,65.5,0c7.8,0,12,4.1,12.1,11.9c0,2.3,0,4.5,0,6.8c0,8.3-4,12.4-12.3,12.5c-10.4,0.1-20.7,0-31.1,0 c-117.5,0-235.1,0-352.6,0c-2,0-4-0.1-5.9-0.5c-3.9-0.9-7-3.1-7.5-7.2c-0.6-4.8-0.9-9.7-0.5-14.5c0.6-5.7,5-9,11-9 c22,0,43.9,0,65.9,0C78.4,297.5,79.8,297.5,81.7,297.5z M113.2,60.6c0,79.1,0,157.9,0,236.8c34,0,67.7,0,101.5,0 c0-87.8,0-175.4,0-263.2C180.5,43,146.8,51.8,113.2,60.6z M246.4,72.3c0,75.1,0,150.1,0,224.9c17,0,33.8,0,50.4,0 c0-75.2,0-150,0-224.9C279.9,72.3,263.3,72.3,246.4,72.3z"/><path d="M168.2,163.9c1.5-4.3,2.4-8.9,4.6-12.7c5.9-9.8,16.3-10.2,23.1-1c6.2,8.4,5.2,23.7-2.1,30.6c-6.6,6.2-14.9,5.4-20.2-1.9 C170.5,174.4,169.1,169.5,168.2,163.9z"/></g></svg>