<svg version="1.1" xmlns="http://www.w3.org/2000/svg" x="0px" y="0px" viewBox="0 0 317.21 317.51" style="enable-background:new 0 0 317.21 317.51;"><g><path d="M318,150.98c0,4.75,0,9.5,0,14.25c-0.27,1.16-0.74,2.32-0.79,3.49c-0.6,13.76-3.12,27.24-7.78,40.1 c-3.58,9.87-8.45,19.31-13.22,28.7c-2.68,5.28-5.89,10.42-9.63,15c-6.47,7.92-13.23,15.66-20.46,22.88 c-4.97,4.95-10.81,9.09-16.54,13.2c-4.64,3.33-9.64,6.16-14.57,9.09c-3.26,1.93-6.51,4.04-10.03,5.36 c-8.36,3.13-16.73,6.4-25.37,8.56c-9.29,2.33-18.88,3.47-28.34,5.09c-2.08,0.36-4.18,0.55-6.27,0.81c-3,0-6,0-9,0 c-1.09-0.17-2.17-0.4-3.26-0.5c-7.16-0.64-14.49-0.49-21.44-2.04c-10.31-2.3-20.66-5.04-30.43-8.98 c-10.28-4.15-20.41-9.14-29.65-15.22c-8.86-5.83-16.59-13.42-24.65-20.42c-10.97-9.53-18.78-21.68-25.97-34.01 c-5.27-9.05-9.07-19.07-12.6-28.99c-2.51-7.05-3.56-14.63-5.08-22c-1.12-5.42-1.95-10.9-2.92-16.36c0-7,0-14,0-21 c0.4-1.15,1-2.27,1.16-3.45c0.5-3.78,0.73-7.6,1.26-11.37c2.3-16.21,7.49-31.52,14.9-46.06c2.62-5.13,6.06-9.84,8.92-14.86 C32.83,60.7,41.59,50.95,51.4,42.2c5.94-5.29,12.45-9.99,19.06-14.44c6.75-4.55,13.62-9.13,20.99-12.48 c9.07-4.13,18.53-7.71,28.17-10.21c9.54-2.48,19.46-4.06,29.3-4.7c17.79-1.17,35.48,0.34,52.58,5.83 c8.87,2.85,18.02,5.36,26.24,9.59c10.24,5.27,20.08,11.58,29.29,18.5c12.42,9.33,22.77,20.83,31.68,33.7 c7.5,10.84,13.86,22.2,18.62,34.44c5.6,14.4,8.65,29.41,9.87,44.8C317.3,148.49,317.73,149.73,318,150.98z M281.07,199.76 c-4.85,0-8.51-0.2-12.13,0.05c-4.19,0.29-7.27-1.28-10.12-4.27c-6.01-6.31-12.27-12.37-18.4-18.56c-3.42-3.45-3.49-8.17-0.18-11.7 c2.03-2.16,4.21-4.18,6.22-6.36c0.72-0.78,1.43-1.77,1.66-2.77c1.64-7.33-8.91-19.15-15.96-18.04c-3.1,0.49-6.53,0.21-9.59-0.57 c-5.19-1.33-6.83-6.18-3.72-10.44c3.99-5.47,8.57-9.94,16.32-8.83c3.06,0.44,6.24-0.06,9.36,0.01 c14.71,0.31,13.64-3.71,13.51-13.94c-0.05-3.7-3.18-6.62-6.89-6.62c-6.87,0.01-13.75,0.02-20.62-0.03 c-1.81-0.01-3.7-0.58-5.43-0.24c-5.09,0.99-8.42,4.97-8.43,10.34c0,5.79-1.89,10.32-7.5,12.41c-5.43,2.02-11.02,3.61-16.55,5.36 c-3.71,1.18-6.96,2.53-6.83,7.45c0.07,2.55-1.63,4.63-4.31,4.85c-4.08,0.34-8.21,0.43-12.29,0.15c-1.06-0.07-2.19-1.79-2.93-2.98 c-0.64-1.02-0.72-2.37-1.13-3.54c-1.02-2.94-6.96-5.06-8.9-2.78c-2.72,3.2-5.17,6.84-6.88,10.67c-2.87,6.45-7.38,9.62-14.41,9.37 c-3.12-0.11-6.28-0.28-9.37,0.04c-6.05,0.62-11.24-5.35-11.48-10.88c-0.1-2.25,0.26-4.54-0.06-6.74 c-1.51-10.15,3.34-17.21,10.67-23.35c5.43-4.55,10.01-9.7,10.56-17.42c0.1-1.4,1.95-3.29,3.41-3.86c6.59-2.55,13.25-5.02,20.05-6.9 c5-1.38,8.81-4.23,12.37-7.66c3.8-3.66,7.71-7.25,11.23-11.17c2.04-2.28,4.63-4.52,3.8-8.36c-0.7-3.27-2.58-6.1-5.57-6.31 c-7.73-0.54-15.92-2.21-21.57,5.93c-1.93,2.78-4.15,4.88-3.98,8.74c0.12,2.73-1.34,5.28-5.08,5.04c-3.82-0.24-7.66-0.09-11.49-0.3 c-2.48-0.13-3.33-1.9-3.36-4.16c-0.05-4.25-0.26-8.51-0.02-12.74c0.07-1.3,1.13-2.87,2.21-3.74c5.62-4.54,11.39-8.9,17.23-13.43 c-4.95-1.92-14.93-0.77-35.38,5.35C94.2,44.3,73.84,59.17,57.98,79.43c-33.68,43.01-37.9,103.71-4.64,152.33 c28.41,41.55,76.9,59.06,112.45,54.42c0-1.45,0.04-2.92-0.01-4.38c-0.21-5.9-4.88-10.13-10.78-10.08 c-9.28,0.07-18.54,0.42-27.4-3.62c-8.22-3.75-14.9-9.54-21.97-14.88c-8.93-6.75-12.18-15.84-11.69-26.69 c0.16-3.62,0.05-7.25-0.03-10.87c-0.26-11.7,5.54-20.16,14.86-26.19c9.06-5.86,18.46-11.24,27.98-16.31 c3.58-1.9,7.87-2.98,11.93-3.33c6.58-0.57,13.24-0.42,19.86-0.21c7.78,0.25,15.11,1.86,21.22,7.38 c6.07,5.49,12.96,10.14,18.6,16.01c5.71,5.94,11.9,8.63,20.05,7.69c2.59-0.3,5.88-0.06,7.89,1.32c5.35,3.68,11.21,7.36,14.98,12.44 c5.24,7.07,12.09,6.14,18.99,6.52c0.51,0.03,1.34-0.43,1.55-0.88C274.8,213.69,277.69,207.24,281.07,199.76z"/><path d="M95.3,97.59c-2.82-0.74-6.31-1.13-9.27-2.59c-2.49-1.22-3.22-6.62-1.27-8.63c5.93-6.12,11.83-12.35,18.38-17.77 c4.81-3.98,10.64-0.61,10.87,5.65c0.05,1.37-0.18,2.77,0.04,4.11c1.34,8.09-3.12,13.34-9.15,17.26C102.54,97.16,99,96.9,95.3,97.59 z"/></g></svg>