<svg fill="#000000" version="1.0" xmlns="http://www.w3.org/2000/svg" width="492.000000pt" height="438.000000pt" viewBox="0 0 492.000000 438.000000" preserveAspectRatio="xMidYMid meet"><g transform="translate(0.000000,438.000000) scale(0.100000,-0.100000)" stroke="none"><path d="M2340 4355 c-30 -9 -81 -30 -112 -48 -91 -51 -2194 -1785 -2214 -1826 -25 -51 -13 -93 51 -176 67 -87 122 -122 178 -111 36 7 104 56 255 184 l52 44 0 -1163 c0 -1150 0 -1164 20 -1197 41 -66 -92 -62 1892 -62 1727 0 1805 1 1837 18 19 10 43 34 53 53 17 32 18 89 18 1192 l0 1159 78 -64 c216 -180 231 -187 306 -150 53 25 154 153 163 204 10 65 -13 91 -288 316 l-259 214 0 422 c0 397 -1 424 -18 439 -16 14 -44 17 -184 17 -147 0 -167 -2 -181 -18 -15 -16 -17 -50 -17 -270 0 -139 -2 -252 -5 -252 -3 0 -272 219 -598 487 -326 268 -613 502 -639 519 -109 74 -269 102 -388 69z m876 -986 l754 -621 0 -1174 0 -1174 -485 0 -485 0 0 650 0 651 -24 48 c-35 69 -67 103 -122 131 l-49 25 -345 0 -345 0 -50 -27 c-63 -33 -87 -59 -119 -128 l-26 -55 0 -647 0 -648 -485 0 -485 0 1 1178 0 1177 752 617 c414 339 753 617 755 617 2 1 343 -278 758 -620z"/></g></svg>
