<svg xmlns="http://www.w3.org/2000/svg" x="0px" y="0px" viewBox="0 0 410.65 327.77"><g><path d="M51.63,115.15c-10.85,4.16-20.76,7.96-30.85,11.83c0.07,0.34-0.09-0.08-0.09-0.51c-0.01-31.69-0.29-63.38,0.12-95.07 C21.05,12.5,34.5,0.09,53.59,0.06c36.75-0.05,73.5-0.01,110.25-0.01c64.25,0,128.5,0.07,192.74-0.05 c14.04-0.03,24.45,5.68,30.36,18.33c1.98,4.24,2.93,9.33,2.97,14.04c0.25,31.06,0.13,62.13,0.12,93.2c0,0.7-0.14,1.4-0.14,1.39 c-10.07-3.83-20.09-7.65-30.75-11.71c0-27.18,0-55.46,0-83.98c-102.6,0-204.89,0-307.51,0C51.63,59.66,51.63,87.93,51.63,115.15z"/><path d="M10.32,187.15c-0.03-28.35,22.9-51.31,51.3-51.35c28.34-0.04,51.45,22.95,51.46,51.2c0.02,28.24-23.15,51.48-51.32,51.47 C33.44,238.46,10.35,215.43,10.32,187.15z M81.92,187.44c0.29-10.79-8.48-20.36-18.93-20.66c-11.76-0.34-21.77,8.35-21.75,19.92 c0.02,12.46,9.39,20.22,19.5,20.59C72.56,207.71,81.6,199.18,81.92,187.44z"/><path d="M348.81,135.8c28.15-0.17,51.39,22.68,51.56,50.7c0.17,28.59-22.71,51.84-51.15,51.97c-28.05,0.13-51.43-22.89-51.62-50.81 C297.43,159.07,320.23,135.98,348.81,135.8z M348.85,207.34c9.36,0.23,20.06-6.57,20.66-20.28c0.47-10.66-9.45-20.26-20.28-20.3 c-11.4-0.04-20.51,9.01-20.47,20.32C328.8,198.38,337.62,207.28,348.85,207.34z"/><path d="M205.48,135.81c27.28-0.05,51.33,21.86,51.31,51.42c-0.02,28.5-23.42,51.38-51.58,51.21 c-26.66-0.16-51.25-20.75-51.25-51.48C153.95,156.66,178.88,135.58,205.48,135.81z M205.43,207.32 c11.46-0.04,20.24-8.96,20.18-20.52c-0.05-11.08-9.17-20.06-20.36-20.04c-11.13,0.02-20.17,9.07-20.18,20.2 C185.07,198.46,193.97,207.36,205.43,207.32z"/><path d="M204.73,259.08c12.19-0.86,23.14,0.09,33.22,5.73c19.33,10.82,29.1,27.26,28.86,49.42c-0.08,7.32-7.27,13.58-15.13,13.66 c-8.39,0.09-15.07-6.03-15.53-14.46c-0.51-9.25-4.2-16.59-12.55-21.08c-2.13-1.14-4.62-2.07-7-2.21c-6.72-0.4-13.5-0.9-20.18-0.35 c-12.93,1.07-20.99,9.99-21.82,23.18c-0.47,7.56-5.21,13.28-12.14,14.67c-6.94,1.39-14.12-1.93-17.19-8.35 c-2.74-5.72-1.67-11.76-0.38-17.58c5.15-23.24,22.2-39.13,45.83-42.53C195.6,258.47,200.68,259.08,204.73,259.08z"/><path d="M348.37,259.03c11.51-0.7,22.18-0.13,32,5.11c18.9,10.09,29.29,25.73,30.26,47.24c0.39,8.62-5.56,15.57-13.6,16.37 c-8.78,0.88-15.34-4.15-17.1-13.01c-0.81-4.11-1.08-8.5-2.8-12.21c-3.62-7.77-10.22-12.27-18.82-12.74 c-7.07-0.38-14.26-0.34-21.29,0.47c-9.93,1.14-17.93,10.49-18.47,20.49c-0.55,10.1-5.82,16.35-14.34,17.03 c-9.09,0.72-16.91-5.9-16.83-14.99c0.16-17.76,7.33-32.26,21.45-43.19C320.71,260.4,334.35,257.62,348.37,259.03z"/><path d="M61.68,258.54c10.99-0.25,21.79,0.38,31.69,5.73c18.86,10.19,29.05,25.98,29.97,47.44c0.36,8.39-5.66,15.23-13.55,16.04 c-8.78,0.89-15.44-4.12-17.1-12.98c-0.48-2.55-0.42-5.23-1.13-7.7c-2.98-10.35-10.15-16.6-20.9-17.33 c-6.94-0.47-14.01-0.3-20.91,0.51c-10.01,1.18-17.94,10.42-18.48,20.45c-0.54,10.11-5.79,16.38-14.3,17.07 c-9.24,0.75-16.77-6.05-16.96-15.32c-0.51-25.44,19.64-49.25,44.91-52.8C50.45,258.87,56.09,258.89,61.68,258.54z"/></g></svg>