<svg xmlns="http://www.w3.org/2000/svg" x="0px" y="0px" viewBox="0 0 409.68 327.75"><g><path d="M328.06,327.43c-10.59,0-20.55,0-31.11,0c0-1.53,0-3.08,0-4.64c0-74.48-0.03-148.95,0.08-223.43 c0.01-3.61-0.98-5.71-4.06-7.74c-28.46-18.78-56.82-37.73-85.14-56.72c-2.19-1.47-3.66-1.54-5.9-0.04 c-28.83,19.3-57.72,38.52-86.66,57.66c-2.24,1.48-2.58,3.16-2.58,5.55c0.05,74.85,0.04,149.7,0.04,224.55c0,1.48,0,2.96,0,4.69 c-10.37,0-20.52,0-31,0c0-57.68,0-115.28,0-173.16c-16.97,0-33.61,0-50.76,0c0,1.57,0,3.14,0,4.7c0,52.02,0.04,104.04-0.1,156.06 c-0.01,2.93-0.85,6.33-2.52,8.64c-1.43,1.98-4.48,3.41-7.03,3.84c-3.76,0.63-7.71,0.18-11.58,0.16c-5.05-0.03-8.85-3.22-9.3-8.23 c-0.39-4.46-0.44-8.95-0.44-13.43C-0.01,252.52,0,199.12,0.02,145.73c0-11.59,5.38-19.57,15.04-22.06c2.74-0.71,5.65-1,8.48-1.01 c17.85-0.09,35.69-0.04,53.54-0.04c1.35,0,2.69,0,4.57,0c0-1.79-0.01-3.24,0-4.68c0.11-10.22,0.11-20.44,0.4-30.66 c0.19-6.84,3.65-11.96,9.27-15.72c33.62-22.47,67.19-45,100.85-67.41c8.39-5.58,17.11-5.5,25.5,0.08 c33.49,22.25,66.92,44.59,100.38,66.9c7.18,4.79,10.04,11.71,9.98,20.11c-0.06,8.98-0.04,17.96-0.05,26.95c0,1.35,0,2.69,0,4.45 c1.75,0,3.09,0,4.43,0c18.22,0,36.44,0.02,54.66-0.01c8-0.01,14.51,2.95,19.27,9.46c2.87,3.91,3.31,8.52,3.31,13.12 c0.04,57.01-0.01,114.02,0.08,171.03c0.01,7.09-4.41,12.25-11.47,11.4c-2.58-0.31-5.24-0.05-7.86-0.05 c-7.53,0-11.66-4.07-11.67-11.74c-0.04-23.33-0.02-46.66-0.02-69.99c0-29.32,0.01-58.63,0-87.95c0-1.21-0.1-2.43-0.17-3.82 c-16.87,0-33.52,0-50.49,0C328.06,211.87,328.06,269.47,328.06,327.43z"/><path d="M261.3,133.23c-0.32,31.54-25.46,56.33-56.57,56.41c-29.99,0.07-56.27-24.43-56.27-56.62c0-30.56,25.14-56.06,55.57-56.21 C235.81,76.66,261.11,101.58,261.3,133.23z M214.94,133.28c0-1.68,0-2.79,0-3.9c0.02-6.73,0.1-13.46,0.03-20.19 c-0.05-5.06-1.45-6.43-6.42-6.58c-2.37-0.07-4.74-0.03-7.11,0.02c-5.37,0.13-6.66,1.33-6.68,6.64c-0.05,12.46-0.05,24.92,0,37.39 c0.02,5.36,1.47,6.77,6.97,6.83c6.98,0.08,13.96,0.08,20.94,0.07c12.96-0.02,12.96-0.04,12.87-13.08c-0.04-5.52-1.6-7.14-7.06-7.2 C224.15,133.25,219.81,133.28,214.94,133.28z"/><path d="M246,276.28c0,13.09,0.01,26.19-0.01,39.28c-0.01,8.38-3.68,12.01-12.04,12.01c-19.83,0-39.67,0.01-59.5,0 c-6.43,0-10.67-3.85-10.7-10.33c-0.1-27.18-0.09-54.37,0-81.55c0.02-5.56,3.55-9.31,9.04-10.18c1.35-0.21,2.73-0.25,4.1-0.25 c18.59-0.02,37.17-0.03,55.76-0.02c9.73,0,13.35,3.61,13.35,13.27C246,251.1,246,263.69,246,276.28z"/></g></svg>