<svg xmlns="http://www.w3.org/2000/svg"  x="0px" y="0px" viewBox="0 0 410.54 327.82" ><g><path d="M225.48,267.17c0-6.51,0-12.49,0-18.47c0-13.88-0.05-27.75,0.02-41.63c0.05-10.82,6.17-19.24,15.7-21.49 c2.51-0.59,5.2-0.6,7.81-0.6c25.63-0.03,51.26,0.31,76.88-0.13c14.89-0.26,23.59,10.61,23.19,23.4 c-0.29,9.11-0.06,18.24-0.06,27.95c5.1,0,10.04,0,14.99,0c4.98,0,9.95,0,15.18,0c0-68.36,0-136.41,0-204.73 c-81.77,0-163.46,0-245.67,0c0,12.02,0,24.05,0,35.7c-10.39-2.05-20.35-4.02-31.07-6.14c0.48,0.61,0.2,0.42,0.2,0.23 c-0.03-10.62-0.52-21.27,0.08-31.86c0.88-15.62,14.3-29.53,32.73-29.39c43.88,0.33,87.76,0.11,131.63,0.11 c36.63,0,73.26-0.01,109.88,0c6.7,0,13.17,0.91,18.87,4.88c9.45,6.59,14.65,15.57,14.66,27.12c0.07,67.38,0.04,134.77,0.04,202.15 c0,19.28-13.35,32.82-32.66,32.87c-37.13,0.09-74.26,0.03-111.38,0.03C252.99,267.17,239.5,267.17,225.48,267.17z M257.03,216.08 c0,6.85,0,13.38,0,19.81c20.44,0,40.57,0,60.67,0c0-6.76,0-13.2,0-19.81C297.42,216.08,277.37,216.08,257.03,216.08z"/><path d="M102.59,328.77c-24.74,0-49.48-0.04-74.23,0.03c-9.06,0.03-16.84-2.59-22.78-9.79c-3.39-4.1-5.53-8.79-5.48-14.01 c0.13-12.7-0.88-25.68,1.42-38.02c5.2-27.86,25.8-46.64,56.06-47.37c9.8-0.24,18.94,2.49,28.29,4.52 c14.82,3.22,29.3,1.16,43.89-2.41c22.34-5.46,42.63-1.11,59.11,15.66c10.64,10.83,15.63,24.4,16.24,39.48 c0.32,7.73-0.27,15.51,0.12,23.24c0.82,16.11-9.83,28.89-28.44,28.71C152.08,328.59,127.33,328.76,102.59,328.77z M30.62,297.49 c48.53,0,96.06,0,144.15,0c-0.36-7.97-0.13-15.75-1.2-23.36c-1.46-10.41-6.92-18.39-17.3-21.98c-7.31-2.53-14.71-1.95-22.06,0.21 c-16.03,4.72-32.36,5.76-48.83,3.2c-7.48-1.16-14.75-3.89-22.24-4.72c-15.25-1.68-27.72,5.01-31.03,20.83 C30.37,279.96,31.04,288.73,30.62,297.49z"/><path d="M164.17,143.9c-0.07,34.42-28.57,64.08-66.34,61.49c-30.93-2.13-58.17-28.73-56.9-64.25 c1.13-31.53,29.03-61.34,66.22-58.72C137.59,84.56,163.98,109.93,164.17,143.9z M133.2,144.06c0-17.06-13.9-30.97-30.87-30.87 c-16.22,0.09-30.31,13.95-30.35,29.85c-0.05,17.82,13.48,31.7,30.86,31.66C119.37,174.65,133.2,160.7,133.2,144.06z"/></g></svg>