<svg xmlns="http://www.w3.org/2000/svg"  x="0px" y="0px" viewBox="0 0 286.39 328.34"><g><path d="M28.03,70.23c0,6.09-0.06,11.83,0.06,17.57c0.02,0.92,0.67,2.2,1.42,2.67c7.13,4.39,8.75,17.64,1.16,23.34 c-0.9,0.67-1.44,2.74-1.16,3.93c2.93,12.38,6.1,24.7,9.12,37.06c1.5,6.15-1.23,9.63-7.52,9.67c-7.11,0.05-14.22,0.05-21.33-0.02 c-6.18-0.06-9.13-3.79-7.67-9.74c2.93-12.01,5.83-24.02,9-35.96c0.68-2.55,0.44-4.23-1.51-5.89c-6.54-5.55-6.01-15.46,0-20.7 c2.33-2.03,2.97-4.23,2.86-7.17c-0.2-5.49-0.14-11-0.04-16.5c0.04-2.19-0.51-3.15-2.91-3.77C3.27,63.1,0,57.98,0.09,50.92 c0.09-7.06,3.25-11.04,9.88-13.01C33.15,31.04,56.29,24,79.47,17.14c18.43-5.45,36.85-10.93,55.39-16 c6.72-1.84,13.75-1.35,20.48,0.66c38.41,11.43,76.79,22.92,115.19,34.4c2.83,0.85,5.76,1.5,8.45,2.69 c6.28,2.77,8.06,6.88,7.23,15.74c-0.42,4.49-4.48,8.77-9.54,10.25c-14.67,4.28-29.3,8.69-44,12.88c-3.12,0.89-3.7,2.08-2.65,5.22 c11.21,33.36,5.11,63.56-17.29,90.41c-13.32,15.96-30.46,26.13-50.83,30.04c-28.29,5.42-54.18-0.55-76.73-18.79 c-16.97-13.73-27.8-31.56-32.19-53c-3.32-16.21-2.56-32.31,3.23-48.01c1.72-4.66,1.6-4.59-3.13-5.95 C44.8,75.29,36.55,72.77,28.03,70.23z M204.64,112.65c0.35-0.09,0.71-0.17,1.06-0.26c-1.82-7.27-3.62-14.54-5.45-21.8 c-0.57-2.27-1.73-2.75-4.1-2.01c-11.41,3.59-22.95,6.75-34.31,10.49c-9.96,3.28-19.88,4.9-30.14,1.87 c-13.7-4.04-27.41-8.04-41.06-12.27c-2.51-0.78-3.42-0.39-4.33,2.03c-6.6,17.6-5.89,34.86,3.06,51.35 c12.54,23.1,38.52,35.9,64.88,31.1C183.43,167.83,204.76,141.94,204.64,112.65z M74.8,50.95c0.92,0.69,1.18,1.01,1.5,1.11 c20.8,6.21,41.58,12.49,62.44,18.49c2.79,0.8,6.19,0.85,8.96,0.05c19.31-5.55,38.53-11.4,57.77-17.17c2.11-0.63,4.2-1.35,6.95-2.23 c-19.98-5.92-39.22-11.36-58.27-17.38c-7.11-2.25-13.78-3.11-20.79-0.15c-2.83,1.19-5.89,1.83-8.85,2.69 C108.08,41.19,91.65,46.01,74.8,50.95z"/><path d="M143.21,256.38c12.79-10.67,25.36-21.18,37.95-31.67c6.96-5.8,14.15-11.36,20.83-17.46c3.41-3.11,6.98-1.48,10.1-1.04 c18.62,2.63,35.12,10.31,48.55,23.55c13.57,13.39,22.64,29.49,24.74,48.76c0.91,8.35,1.46,16.92,0.56,25.22 c-0.95,8.72-6.46,15.41-13.91,20.15c-4.92,3.13-10.28,4.39-16.23,4.38c-75.45-0.12-150.91-0.23-226.36,0.06 c-13.71,0.05-28.73-13.68-29.31-27.73c-0.71-16.99,1.31-33.2,9.15-48.33c9.65-18.63,24.29-32.01,43.62-40.23 c8.84-3.76,18.11-5.63,27.6-6.54c0.96-0.09,2.19,0.36,2.95,0.99c13.21,10.93,26.38,21.91,39.54,32.9 C129.66,244.97,136.3,250.58,143.21,256.38z M255.23,297.27c3.49-23.36-11.75-48.28-34.3-56.96c-4.8-1.84-8.25-1.97-12.49,1.72 c-15.74,13.68-31.89,26.88-47.86,40.3c-0.69,0.58-1.56,1.47-1.59,2.24c-0.16,4.19-0.07,8.4-0.07,12.7 C191.33,297.27,223.3,297.27,255.23,297.27z M127.65,297.31c0-3.87,0.17-7.49-0.09-11.07c-0.1-1.37-0.86-3.06-1.89-3.93 c-16.98-14.38-34.04-28.66-51.16-42.88c-0.84-0.7-2.5-1.04-3.56-0.74c-11.67,3.31-21.43,9.62-28.77,19.36 c-8.72,11.57-12.47,24.6-11,39.25C63.28,297.31,95.17,297.31,127.65,297.31z"/></g></svg>