<svg style="fill: #000000" version="1.0" xmlns="http://www.w3.org/2000/svg" width="424.000000pt" height="425.000000pt" viewBox="0 0 424.000000 425.000000" preserveAspectRatio="xMidYMid meet"><g transform="translate(0.000000,425.000000) scale(0.100000,-0.100000)" stroke="none"><path d="M1870 4234 c-464 -53 -884 -254 -1229 -589 -343 -332 -551 -740 -621 -1214 -25 -168 -27 -422 -5 -580 21 -150 77 -373 125 -495 142 -362 391 -689 709 -929 755 -570 1821 -562 2569 20 184 143 387 368 509 564 334 536 406 1228 193 1834 -132 372 -401 735 -730 981 -125 94 -210 145 -355 215 -364 174 -761 240 -1165 193z m584 -434 c440 -94 817 -341 1064 -698 225 -325 331 -709 301 -1095 -30 -405 -184 -756 -458 -1049 -666 -711 -1809 -713 -2476 -6 -385 408 -547 972 -435 1518 114 557 507 1027 1035 1239 114 46 297 95 406 110 125 17 448 6 563 -19z"/><path d="M2025 3297 c-107 -36 -183 -99 -230 -194 -37 -72 -46 -186 -21 -261 52 -156 189 -254 354 -254 185 1 341 151 350 337 8 155 -67 281 -207 348 -75 35 -180 45 -246 24z"/><path d="M1669 2371 l-29 -29 0 -147 0 -147 29 -29 c27 -27 35 -29 100 -29 l71 0 0 -270 0 -270 -50 0 c-61 0 -111 -19 -134 -51 -13 -19 -16 -49 -16 -154 0 -71 3 -139 6 -150 3 -11 20 -30 38 -43 32 -22 35 -22 436 -22 401 0 404 0 436 22 18 13 35 32 38 43 3 11 6 79 6 151 0 117 -2 134 -20 157 -23 30 -74 47 -137 47 l-42 0 -3 446 -3 446 -33 29 -32 29 -316 0 -316 0 -29 -29z"/></g></svg>
