<svg version="1.1" xmlns="http://www.w3.org/2000/svg" x="0px" y="0px" viewBox="0 0 328.5 245.9"><g><path d="M0,91.26c1.91-5.59,3.16-11.35,7.27-16.09c5.55-6.4,12.24-10.61,20.62-10.85c19.09-0.54,38.19-0.6,57.29-0.71 c7.45-0.04,7.23,0.13,7.22-7.49c0-10.23,0.1-20.49,0.72-30.69c0.36-5.95,3.31-11.24,7.43-15.5c8.05-8.32,18.23-11.04,29.36-9.18 c7.27,1.21,12.86,5.92,17.9,11.21c6.84,7.17,13.79,14.22,20.81,21.22c7.19,7.17,14.58,14.14,21.74,21.33 c8.9,8.94,17.66,18.03,26.5,27.03c7.8,7.94,15.91,15.59,23.37,23.84c7.13,7.88,8.44,23.39,2.08,31.65 c-6.79,8.81-14.63,16.86-22.43,24.83c-15.94,16.26-32.17,32.23-48.27,48.33c-8.81,8.81-17.57,17.67-26.43,26.43 c-9.6,9.49-23.57,12.08-35.29,6.03c-9.78-5.05-16.38-12.92-16.87-24.4c-0.46-10.83-0.34-21.69-0.24-32.54 c0.03-2.96-0.79-3.76-3.77-3.74c-19.25,0.14-38.5-0.25-57.74,0.17c-13.17,0.29-27.92-11.05-29.94-23.31 c-0.22-1.31-0.89-2.54-1.35-3.81C0,133.76,0,112.51,0,91.26z M123,214.89c31.2-31.17,61.7-61.64,92.34-92.25 c-30.5-30.45-60.93-60.84-92.17-92.04c0,21.67,0,42.5,0,63.69c-2.34,0-3.95,0-5.55,0c-27.5,0-55,0.05-82.5-0.09 c-3.45-0.02-4.5,0.88-4.46,4.39c0.18,16.25,0.14,32.5,0.02,48.75c-0.02,2.97,0.58,4.11,3.88,4.09c27.62-0.12,55.25,0.02,82.87-0.07 c5.16-0.02,5.65,1,5.62,5.79c-0.12,17.63-0.04,35.25-0.04,52.88C123,211.38,123,212.71,123,214.89z"/><path d="M328.5,189.52c-1.38,5.46-2.24,11.12-4.24,16.34c-6.25,16.31-17.35,28.24-33.56,35.12c-7.33,3.11-14.95,4.84-23,4.79 c-17.24-0.09-34.49-0.09-51.73,0.06c-8.59,0.07-10.71-3.83-10.48-10.8c0.12-3.62,0.14-7.25,0.02-10.87 c-0.18-5.21,3.32-8.45,8.58-8.43c17.37,0.08,34.74,0.15,52.11-0.06c17.91-0.22,31.64-13.52,31.61-31.78 c-0.09-40.87,0.08-81.74-0.09-122.6c-0.05-12.3-5.91-21.39-16.77-27.42c-4.77-2.65-9.82-3.31-15.01-3.34 c-16.62-0.11-33.24-0.04-49.86-0.04c-8.11,0-10.51-2.36-10.56-10.34c-0.02-3.37,0.19-6.76-0.04-10.12 c-0.48-7.03,3.09-10,10.28-10.03c16.72-0.07,33.46,0.59,50.17,0.27c11.69-0.22,22.34,2.62,32.19,8.5 c10.41,6.21,18.79,14.59,23.57,25.87c2.81,6.64,4.58,13.73,6.82,20.61C328.5,100.01,328.5,144.76,328.5,189.52z"/></g></svg>