<svg version="1.1" xmlns="http://www.w3.org/2000/svg" x="0px" y="0px" viewBox="0 0 286.78 327.84"><g><path d="M143.3,327.78c-36.75,0-73.49-0.11-110.24,0.06c-10.93,0.05-19.87-3.55-26.64-12.16c-3.35-4.26-6.03-9.03-6.1-14.53 c-0.17-13.69-1.35-27.46,2.19-40.97c4.85-18.48,14.35-33.9,29.33-45.94c10.3-8.28,21.78-13.92,34.62-17.04 c13.36-3.25,26.48-3.09,39.57,1.44c16.08,5.56,32.55,7.28,49.59,5.68c9.55-0.9,18.46-3.73,27.45-6.45 c10.75-3.25,21.47-3.58,32.47-1.71c17.95,3.04,33.2,11.29,45.99,23.96c16.69,16.52,25.13,36.71,25.12,60.26 c0,8.22,0.62,16.65-0.91,24.62c-2.15,11.21-12.97,20.9-24.37,22.22c-3.22,0.37-6.48,0.53-9.72,0.54 C215.54,327.79,179.42,327.78,143.3,327.78z M256.55,297.14c0-5.99,0.23-11.49-0.05-16.96c-0.45-8.74-1.9-17.24-6.27-25.08 c-7.29-13.1-17.66-22.44-31.99-27.16c-8.67-2.85-17.5-4.21-26.37-1.17c-13.11,4.49-26.48,7.64-40.32,8.46 c-17.55,1.04-34.77-0.94-51.33-6.95c-10.39-3.78-20.63-4-31.06-0.53c-12.99,4.32-22.86,12.37-30.44,23.81 c-9.33,14.09-8.56,29.67-8.33,45.59C105.94,297.14,181.1,297.14,256.55,297.14z"/><path d="M142.71,0c52.06-0.45,92.68,41.39,92.84,91.46c0.16,51.26-40.21,92.67-91.97,92.7c-51.05,0.04-92.08-40.27-92.33-91.93 C51.01,41.76,91.91,0.06,142.71,0z M204.98,92.32c0.57-32.49-25.55-61.27-60.29-61.91c-34.95-0.64-60.8,26.53-62.72,57.8 c-2.23,36.35,26.99,65.62,62.28,65.42C176.56,153.46,205.5,125.99,204.98,92.32z"/></g></svg>