<?xml version="1.0" encoding="utf-8"?>
<!-- Generator: Adobe Illustrator 24.0.1, SVG Export Plug-In . SVG Version: 6.00 Build 0)  -->
<svg version="1.1" id="Слой_1" xmlns="http://www.w3.org/2000/svg" xmlns:xlink="http://www.w3.org/1999/xlink" x="0px" y="0px"
	 viewBox="0 0 328.5 327.61" style="enable-background:new 0 0 328.5 327.61;" xml:space="preserve">
<g>
	<path d="M0,237.75c0.72-3.25,1.13-6.61,2.2-9.73c3.09-8.94,9.8-14.32,18.26-17.92c16.89-7.19,33.74-14.47,50.63-21.66
		c4.91-2.09,9.78-4.38,14.87-5.91c9.32-2.8,17.99-1.51,25.86,4.78c9.33,7.45,15.36,17.7,23.15,26.45c3,3.37,3.77,3.77,7.78,1.43
		c20.58-12.06,38.64-27.24,53.83-45.53c7.35-8.84,13.08-19.02,19.61-28.54c1.67-2.43,1.32-4.12-1-5.95
		c-7.71-6.06-15.47-12.08-22.88-18.5c-8.88-7.69-13.96-20.94-8.6-33.46c9.28-21.71,18.57-43.42,27.83-65.14
		c3.82-8.97,10.77-14.31,19.79-17.33c0.43-0.14,0.79-0.49,1.18-0.74c4,0,8,0,12,0c0.14,0.19,0.24,0.51,0.42,0.55
		c11.8,2.74,23.61,5.46,35.42,8.19c7.8,1.81,15.55,3.92,23.42,5.39c7.83,1.46,13.83,5.49,18.71,11.5
		c3.87,4.76,5.11,10.52,6.04,16.37c0,2,0,4,0,6c-0.76,9.69-1.26,19.4-2.35,29.05c-2.05,18.19-5.79,36.07-11.59,53.43
		c-7.5,22.47-17.01,44.1-30.1,63.92c-7.1,10.74-14.72,21.2-22.88,31.16c-6.86,8.37-14.49,16.19-22.42,23.57
		c-9.08,8.45-18.52,16.62-28.44,24.06c-13,9.75-26.83,18.33-41.75,24.96c-10.29,4.58-20.34,9.97-31.01,13.39
		c-14.68,4.7-29.76,8.33-44.84,11.61c-16.58,3.61-33.52,4.58-50.48,4.45c-3.06-0.02-6.27-0.57-9.13-1.63
		c-10.53-3.9-16.53-11.89-19.08-22.57c-2.94-12.32-5.71-24.68-8.49-37.03c-2.03-9.03-3.97-18.08-5.95-27.11
		C0,238.75,0,238.25,0,237.75z M44.41,297.59c0.96,0,1.7,0.06,2.43-0.01c10.15-0.92,20.32-1.65,30.44-2.84
		c16.15-1.9,31.91-5.5,47.34-10.76c15.55-5.3,30.58-11.66,44.64-20.1c9.88-5.93,19.81-11.92,28.92-18.92
		c13.17-10.12,25.19-21.59,36.22-34.1c13.91-15.79,25.75-33,35.37-51.63c9.9-19.15,17.15-39.35,21.82-60.49
		c3.8-17.21,5.51-34.6,6.16-52.16c0.09-2.39-1.02-3.32-3.13-3.8c-15.48-3.49-30.88-7.32-46.43-10.43c-9.97-1.99-8.2-4.51-12.29,6.26
		c-0.22,0.58-0.52,1.12-0.77,1.69c-7.2,16.71-14.39,33.42-21.58,50.13c-0.81,1.89-1.39,3.59,0.76,5.26
		c6.24,4.84,12.34,9.85,18.49,14.81c6.66,5.37,13.27,10.81,19.97,16.13c2.21,1.75,2.91,3.22,1.5,6.17
		c-8.01,16.8-17.13,32.93-28.02,48c-9.35,12.93-19.94,24.88-32.41,34.8c-10.7,8.51-21.98,16.38-33.52,23.74
		c-8.59,5.48-17.99,9.72-27.05,14.46c-2.62,1.37-4.64,0.55-6.49-1.74c-10.16-12.58-20.46-25.05-30.59-37.65
		c-1.48-1.85-2.64-2.47-4.95-1.46c-6.91,3.02-13.97,5.7-20.88,8.7c-11.99,5.2-23.85,10.71-35.93,15.69
		c-3.08,1.27-3.23,2.77-2.64,5.35c2.51,11,4.92,22.03,7.43,33.03C40.88,282.99,42.65,290.21,44.41,297.59z"/>
</g>
</svg>
