<svg version="1.1" xmlns="http://www.w3.org/2000/svg" x="0px" y="0px" viewBox="0 0 328.63 287.33"><g><path d="M301.61,287.33c-90.54,0-181.07,0-271.61,0c-0.79-0.24-1.57-0.63-2.38-0.69c-15.6-1.11-27.49-14.65-27.53-30.24 c-0.15-54.74-0.11-109.48,0-164.22c0.03-16.31,13.65-30.64,30.53-30.49c15.62,0.14,31.25-0.01,46.87-0.02c1.33,0,2.66,0,4.43,0 c0-3.67-0.12-6.9,0.02-10.11c0.4-9.45,0.3-18.97,1.55-28.31c1.16-8.72,7.08-14.97,14.44-19.3c5.64-3.31,12.12-3.98,18.73-3.95 c31.5,0.15,63,0.03,94.5,0.14c4.06,0.01,8.2,0.47,12.16,1.36c12.11,2.72,19.86,10.5,21.87,22.53c1.49,8.89,0.97,18.13,1.28,27.21 c0.11,3.4,0.02,6.81,0.02,10.43c2.93,0,5.04,0,7.15,0c15.25,0.03,30.5-0.2,45.75,0.16c16.39,0.38,28.9,13.95,29,29.19 c0.36,55.24,0.24,110.48,0.08,165.72c-0.03,10.57-4.77,19.25-13.84,24.91C310.66,284.13,305.97,285.47,301.61,287.33z M123.62,174.5c-1.41-0.19-2.01-0.34-2.62-0.34c-29.13-0.01-58.27,0.01-87.4-0.05c-2.45,0-2.88,1.12-2.87,3.21 c0.04,24.88,0.05,49.76-0.01,74.64c-0.01,2.39,0.76,3.83,3.16,4.19c1.46,0.22,2.94,0.45,4.42,0.45 c56.77,0.03,113.54,0.03,170.31,0.03c27.63,0,55.27-0.02,82.9-0.05c5.51-0.01,6.36-0.88,6.36-6.25 c0.01-24.13-0.05-48.26,0.07-72.38c0.01-2.99-0.86-3.86-3.82-3.85c-28.51,0.08-57.02,0.06-85.53-0.01c-2.24,0-3.2,0.67-3.14,2.99 c0.09,3.5,0.11,7.01-0.11,10.49c-0.17,2.71-0.19,5.66-1.29,8.04c-3.13,6.77-8.84,9.52-16.24,9.37c-8.37-0.17-16.75-0.04-25.13-0.03 c-7.62,0.01-15.25,0.03-22.87,0.07c-8.89,0.05-16.56-5.53-16.22-15.33C123.76,184.63,123.62,179.56,123.62,174.5z M297.76,143.38 c0.05-1.11,0.11-1.83,0.11-2.56c0.01-14.12,0.04-28.24,0.01-42.36c-0.01-5.82-0.5-6.24-6.52-6.24c-79.36,0-158.72,0-238.08,0 c-5.87,0-11.75,0.02-17.62-0.01c-3.39-0.02-5,1.52-4.97,5c0.08,12.74,0.04,25.49,0.08,38.24c0.02,7.9,0.05,7.89,7.81,7.89 c84.74,0.01,169.47,0.02,254.21,0.03C294.36,143.38,295.95,143.38,297.76,143.38z M164.32,61.61c0,0.02,0,0.04,0,0.06 c15.99,0,31.98-0.05,47.97,0.05c2.67,0.02,3.82-0.68,3.77-3.56c-0.14-8.11-0.07-16.23,0-24.34c0.02-2.31-0.57-3.2-3.21-3.19 c-30.85,0.12-61.71,0.08-92.56,0.06c-0.99,0-1.99-0.1-2.96-0.29c-3.9-0.74-4.63-0.21-4.66,3.87c-0.05,8.11,0.05,16.21-0.04,24.32 c-0.03,2.5,0.93,3.09,3.34,3.07C132.09,61.56,148.21,61.61,164.32,61.61z"/></g></svg>