<svg width="30" height="30" viewBox="0 0 30 30" xmlns="http://www.w3.org/2000/svg"><path d="M20.1791 21.3843C16.6996 24.1632 12.8201 25.0926 8.54606 23.797C5.66974 22.9256 3.43067 21.1331 1.83344 18.5722C-0.97115 14.0808 -0.567473 8.17685 3.10883 4.08294C7.02606 -0.278743 13.0766 -1.12071 17.8766 1.43648C20.078 2.60972 21.7653 4.31667 22.9368 6.52327C24.1157 8.7446 24.5524 11.1113 24.2563 13.6059C23.9639 16.0766 22.9626 18.252 21.3405 20.2018C21.4931 20.2294 21.5492 20.2552 21.5998 20.246C22.2278 20.1347 22.649 20.4402 23.0591 20.8782C23.8352 21.7063 24.6527 22.4949 25.4591 23.2927C26.8292 24.6473 28.2058 25.9935 29.5768 27.3471C30.1414 27.9047 30.1386 28.166 29.5832 28.7228C29.243 29.0641 28.9055 29.4083 28.5598 29.7442C28.214 30.081 27.8738 30.0874 27.5363 29.7506C25.1897 27.4078 22.8439 25.065 20.5111 22.7084C20.3685 22.5649 20.3088 22.3137 20.2665 22.102C20.226 21.8941 20.2573 21.6723 20.2573 21.457C20.2334 21.4321 20.2058 21.4082 20.1791 21.3843ZM2.71895 12.1778C2.62792 17.3612 6.90744 21.6732 12.1718 21.6723C17.4086 21.6714 21.6467 17.4606 21.6513 12.1916C21.6559 6.95944 17.4545 2.70358 12.1856 2.6953C6.88077 2.68794 2.63068 7.03674 2.71895 12.1778Z"/></svg>