<svg xmlns="http://www.w3.org/2000/svg" x="0px" y="0px" viewBox="0 0 308.6 328.6"><g><path d="M1,89.1C0.2,80.1,1,71.4,6.7,63.9c3.6-4.8,8.3-8.3,13.8-10.6c40.8-17,81.6-33.9,122.5-50.8c7.7-3.2,15.6-3.3,23.3-0.1 c41,16.9,81.9,34,122.8,51c12.4,5.2,20,16.4,19.5,30c-0.5,13.5-1,27-2.6,40.3c-5,40.6-18,78.5-39.9,113.3 c-19.7,31.2-44.7,57.1-76,76.7c-7.7,4.8-15.9,8.8-24.2,12.5c-7.3,3.3-15.2,3.1-22.6,0.1c-19.2-7.9-36.3-19.1-52-32.7 c-27-23.4-47.6-51.7-62.8-83.8c-11.8-24.9-20-50.9-23.8-78.2c-2-14.1-3.2-28.2-4.7-42.3C0.4,89.2,0.7,89.2,1,89.1z M277.8,87.5 c1.7-4.2-1.5-6.6-6.3-7.8c-1.2-0.3-2.3-0.9-3.4-1.4C231.4,63,194.7,47.6,158,32.4c-1.8-0.8-4.4-0.8-6.2-0.1 c-8.7,3.4-17.2,7.2-25.8,10.7C95.4,55.7,65,68.4,34.6,81c-2.1,0.9-3.1,1.9-2.9,4.4c0.6,7.7,0.9,15.4,1.5,23.2 c1.7,22.2,6.4,43.9,14,64.8c10.3,28.4,24.7,54.4,44.8,77.1c17.1,19.3,36.7,35.2,60.3,45.9c1.2,0.5,3,0.9,4.1,0.4 c16.9-7.5,32.1-17.7,45.6-30.3c22.6-21,40-45.7,52.7-73.8C269.5,159.7,276.4,124.9,277.8,87.5z"/><path d="M154.5,262.6c-15.2-9.1-28.1-20.4-39.6-33c-23.1-25.3-38.1-55-45.7-88.3c-2.6-11.5-4-23.3-5.8-35c-0.4-2.3-0.5-4.3,2.6-5.5 c28.4-11.6,56.8-23.4,85.1-35.2c1-0.4,2.1-0.8,3.4-1.3C154.5,130.4,154.5,196.3,154.5,262.6z"/></g></svg>